PathFileType	4	(X/Y/Z)	D:\TRACE\spotREDO_2-26-24\spot_justBody_Motion_1_2-v60.trc
DataRate	CameraRate	NumFrames	NumMarkers	Units	OrigDataRate	OrigDataStartFrame	OrigNumFrames
100.00	100.00	      31	9	mm	100.00	2626	      7000
Frame#	Time	front left toe			Front right toe			aft left toe			aft right toe			Arm			FL body			FR body			AL Body			AR Body			
		X1	Y1	Z1	X2	Y2	Z2	X3	Y3	Z3	X4	Y4	Z4	X5	Y5	Z5	X6	Y6	Z6	X7	Y7	Z7	X8	Y8	Z8	X9	Y9	Z9	

2626	26.250	-315.47006	16.40916	-94.95536	176.94624	16.11108	-162.47575	-232.84641	33.71601	327.12875	205.66002	31.55838	276.18124	-115.86977	803.78046	-355.80096	-189.74406	544.01147	-310.75568	-37.36868	549.37421	-344.77701	-7.36677	570.69598	553.21631	138.32248	572.47803	523.61670	
2627	26.260	-315.84760	16.37846	-95.00630	176.62910	16.13811	-162.51909	-232.93765	33.41354	327.21613	205.15282	31.63873	276.21140	-116.64342	803.64856	-355.97235	-190.64165	544.06635	-311.04742	-38.51708	549.38934	-344.99457	-8.63221	570.98468	553.15070	137.10715	572.71576	523.61383	
2628	26.270	-316.03793	16.15784	-94.98861	176.46848	16.08180	-162.54909	-233.21382	33.39099	327.12314	204.98445	31.74790	276.14105	-117.48314	803.57837	-356.29282	-191.45415	544.07007	-311.15280	-39.13745	549.34540	-345.09732	-9.93782	571.24109	553.03082	135.48366	573.12164	523.66229	
2629	26.280	-316.44235	16.09987	-94.92863	176.42072	16.19694	-162.52850	-233.66261	33.55134	327.04361	204.60593	31.76695	276.15961	-118.25058	803.61786	-356.75278	-192.23976	543.86255	-311.13165	-40.08698	549.29797	-345.11462	-11.47418	571.66504	552.82935	134.32101	573.43756	523.74817	
2630	26.290	-316.89502	16.20612	-94.93599	176.16267	16.28143	-162.58414	-234.09193	33.63662	327.00143	204.14105	31.70730	276.06992	-118.96178	803.58435	-356.93619	-193.62982	544.21332	-312.28317	-40.99393	549.25916	-345.39215	-12.60542	571.80811	552.72015	132.95744	573.56677	523.58191	
2631	26.300	-317.25296	16.29854	-94.96885	175.73177	16.35170	-162.57990	-234.52451	33.61076	326.90759	203.88390	31.74954	276.09830	-119.91686	803.69952	-357.25485	-194.10651	543.92297	-311.90518	-42.00615	549.27478	-345.58167	-14.24207	571.98242	552.55304	131.50977	573.67871	523.51196	
2632	26.310	-317.52353	16.27265	-94.99282	175.46133	16.35692	-162.56656	-234.81030	33.53679	326.78128	203.63199	31.92139	276.09332	-120.73097	803.81866	-357.58194	-194.76398	543.85052	-312.07568	-42.80482	549.17786	-345.77609	-15.44637	572.07208	552.49414	130.05800	573.82617	523.49274	
2633	26.320	-317.76297	16.03944	-94.98849	175.27161	16.33902	-162.52707	-235.17035	33.50250	326.75220	203.26517	32.11477	275.98856	-121.65692	803.71228	-357.72864	-195.86394	543.97021	-312.19601	-43.51250	549.21362	-345.85614	-16.94127	572.28900	552.41418	128.81256	574.02539	523.36200	
2634	26.330	-317.89105	15.85155	-95.01450	174.99864	16.32002	-162.54231	-235.40494	33.49101	326.71100	203.06178	32.27712	275.91306	-122.25696	803.56152	-357.76413	-196.79491	544.02167	-312.50983	-44.50417	549.17163	-346.07901	-17.97208	572.48651	552.23248	127.63248	574.04321	523.31952	
2635	26.340	-317.99557	15.73955	-95.06593	174.74757	16.33412	-162.57205	-235.59833	33.52373	326.73712	203.04059	32.41809	275.84042	-123.27373	803.47614	-358.36859	-197.80389	543.97717	-312.78339	-45.16628	548.87787	-345.91315	-19.48969	572.71942	552.14471	126.52345	574.19171	523.24701	
2636	26.350	-318.04666	15.65156	-95.14515	174.58199	16.37143	-162.54979	-235.68105	33.51721	326.77118	202.84357	32.44753	275.82928	-123.99557	803.54633	-358.63516	-199.11736	544.38947	-313.83493	-46.11820	548.95221	-346.08893	-20.83353	572.90375	551.87738	124.72131	574.19061	522.96362	
2637	26.360	-318.04932	15.59696	-95.16348	174.48499	16.35952	-162.52576	-235.79832	33.46464	326.78555	202.74509	32.51959	275.86371	-124.62958	803.54071	-358.85223	-200.23154	544.53009	-314.09900	-46.82428	548.86841	-346.25537	-22.22118	572.97552	551.68420	123.51414	574.22498	522.82410	
2638	26.370	-318.09442	15.47762	-95.23779	174.33580	16.41156	-162.50279	-235.83493	33.36423	326.77957	202.53590	32.63385	275.83286	-125.45592	803.54382	-359.12210	-200.34253	544.02600	-313.59079	-48.15353	549.09302	-346.89822	-23.57382	573.10199	551.45813	122.12677	574.45996	522.65845	
2639	26.380	-318.22751	15.44358	-95.27650	174.23277	16.47857	-162.55299	-235.86761	33.34485	326.78455	202.43884	32.66987	275.73486	-126.02510	803.46790	-359.46124	-201.26495	543.81433	-313.64859	-48.92684	548.99438	-347.03387	-24.67138	573.23334	551.28381	121.06503	574.44275	522.68842	
2640	26.390	-318.35712	15.33869	-95.34426	174.19702	16.47611	-162.56509	-235.88451	33.30460	326.78040	202.43266	32.82677	275.65656	-126.92503	803.39178	-359.76852	-202.12082	543.83704	-313.87848	-49.85560	548.87842	-347.06677	-25.89833	573.25653	551.11316	119.74874	574.63531	522.74847	
2641	26.400	-318.44180	15.26819	-95.36787	174.16454	16.52028	-162.58357	-235.91644	33.21482	326.75613	202.35474	32.83284	275.68716	-127.72682	803.24902	-360.03717	-203.05011	543.88989	-314.50140	-50.58971	548.77985	-347.31741	-27.28098	573.52374	550.84863	118.20976	574.62537	522.49097	
2642	26.410	-318.50998	15.20856	-95.35839	174.06412	16.58017	-162.59456	-235.93140	33.16450	326.75967	202.29233	32.97035	275.69934	-128.64450	803.15839	-360.50992	-203.82913	543.91516	-314.68826	-51.84498	548.61584	-347.72711	-28.27445	573.65576	550.78735	116.77124	574.70184	522.27466	
2643	26.420	-318.55081	15.24727	-95.41801	174.05930	16.62858	-162.65909	-236.01645	33.09027	326.75571	202.24095	33.05438	275.62344	-129.30721	803.05695	-360.73837	-204.93384	543.95154	-314.99341	-52.54716	548.51874	-347.87289	-29.42661	573.70953	550.52057	115.58318	574.77899	522.21844	
2644	26.430	-318.63644	15.16334	-95.43013	173.98169	16.69422	-162.67244	-236.12701	33.01307	326.74377	202.16013	33.09262	275.59964	-130.30907	803.10968	-361.07269	-206.02626	543.75708	-315.21167	-53.47797	548.44269	-348.07001	-30.49258	573.88416	550.37329	114.19713	574.95850	522.11340	
2645	26.440	-318.73666	15.06116	-95.40038	173.95177	16.74603	-162.74171	-236.17726	32.94028	326.73587	202.00905	33.29546	275.57043	-131.23921	802.97229	-361.43500	-206.92845	543.68353	-315.61691	-54.36567	548.33630	-348.19702	-33.24160	574.27173	549.88544	113.06774	575.19373	522.00189	
2646	26.450	-318.80820	14.92715	-95.33437	174.36394	16.78695	-162.59834	-236.32841	32.85901	326.67587	201.94189	33.39302	275.51736	-131.94110	802.73285	-361.84027	-207.63693	543.58582	-315.72009	-55.40718	548.08545	-348.49762	-33.93344	574.71680	550.19714	111.45936	575.16925	521.79230	
2647	26.460	-318.86752	14.92767	-95.38553	174.41774	16.65868	-162.49176	-236.38348	32.79318	326.67123	201.91048	33.54421	275.49393	-132.50195	802.57086	-362.06281	-209.24704	544.14990	-316.99127	-56.37513	547.97839	-348.68069	-37.26010	575.24402	549.65363	110.27341	575.26495	521.62689	
2648	26.470	-318.85419	14.88599	-95.48089	174.14531	16.83139	-162.76967	-236.42310	32.79865	326.61481	201.96017	33.60317	275.51331	-133.79591	802.43951	-362.53909	-209.80154	543.62640	-316.74283	-57.21852	547.95435	-348.96902	-38.21417	575.36206	549.42963	108.90112	575.31427	521.51184	
2649	26.480	-318.80099	14.79548	-95.50084	174.13156	16.89198	-162.82797	-236.32014	32.66667	326.62476	202.01973	33.71587	275.49860	-134.59518	802.51599	-362.90631	-210.43607	543.31293	-316.65533	-57.97581	547.85449	-349.17517	-39.25662	574.95844	548.90344	107.74623	575.44305	521.40393	
2650	26.490	-318.56644	14.54632	-95.45402	174.07397	16.87627	-162.91309	-236.19115	32.57040	326.67786	202.08980	33.82408	275.46960	-135.28264	802.32684	-363.20538	-211.73441	543.43256	-317.13260	-59.06420	547.75012	-349.43976	-40.41040	574.88177	548.82428	106.22411	575.54047	521.07977	
2651	26.500	-318.30490	14.35675	-95.44716	174.15878	16.92489	-162.96120	-236.00340	32.57811	326.66589	202.34807	33.87099	275.46634	-136.49634	802.35291	-363.66809	-212.24622	543.15063	-317.42865	-59.90428	547.33008	-349.39667	-41.63811	574.85907	548.51312	104.87902	575.46558	520.79669	
2652	26.510	-318.12524	14.31204	-95.53481	174.29720	17.00506	-163.06197	-235.72235	32.64365	326.67560	202.50700	33.95055	275.43427	-137.46844	802.21759	-363.87540	-214.19324	543.65283	-318.72217	-60.53510	547.23962	-349.52856	-42.74496	574.85956	548.30829	103.42821	575.69458	520.65356	
2653	26.520	-317.99759	14.27502	-95.59390	174.38316	17.08164	-163.13368	-235.57111	32.66163	326.63602	202.58609	34.07428	275.35596	-138.39349	802.05011	-364.17816	-214.17554	542.97827	-318.22202	-61.81573	547.59790	-350.22504	-44.27622	574.87085	548.04816	101.95311	575.81494	520.42859	
2654	26.530	-317.84390	14.18550	-95.52124	174.66006	17.12234	-163.09937	-235.41287	32.60799	326.58261	202.73065	34.14119	275.34769	-139.60071	802.12280	-364.68369	-215.34480	542.97894	-318.69543	-62.68646	547.60443	-350.71967	-45.32942	574.91528	547.74811	100.78105	575.84174	520.20496	
2655	26.540	-317.68634	14.05381	-95.56175	174.88029	17.24307	-163.16653	-235.37192	32.52972	326.56552	202.81903	34.26390	275.28302	-140.40138	801.94824	-364.99954	-215.98383	542.63452	-318.92419	-63.43891	547.54071	-350.89792	-46.71630	574.94910	547.41724	99.31070	575.84393	519.78955	
2656	26.550	-317.51978	14.03791	-95.53045	175.11517	17.32959	-163.11453	-235.31970	32.55542	326.58554	203.05505	34.36028	275.29880	-141.33640	801.95239	-365.42603	-217.29506	542.67377	-319.42331	-64.52518	547.45367	-351.34741	-48.27476	575.08960	547.12341	97.89870	576.00769	519.71826	
